<?xml version="1.0" encoding="utf-8"?>
<!-- Generator: Adobe Illustrator 28.0.0, SVG Export Plug-In . SVG Version: 6.00 Build 0)  -->
<svg version="1.1" id="Слой_1" xmlns="http://www.w3.org/2000/svg" xmlns:xlink="http://www.w3.org/1999/xlink" x="0px" y="0px"
	 viewBox="0 0 1000.0049438 239.5898285" enable-background="new 0 0 1000.0049438 239.5898285" xml:space="preserve">
<g>
	<path fill="#0066FF" d="M747.2781982,239.5458527h-21.8546753c-4.8544312,0-8.1185913-4.9584961-6.2042236-9.4153595
		l17.65979-41.0417175c0.3765869-0.8789368,0.3870239-1.8836517,0.0209351-2.7723389L683.8060913,58.5663567
		c-1.9038696-4.4567223,1.3603516-9.4051743,6.2043457-9.4051743h21.7078247c5.4616089,0,10.3886719,3.2954483,12.4812012,8.338089
		l32.0762939,80.9954376c0.456665,1.1716766,2.1112671,1.1821594,2.5979004,0.0209656l33.6231079-81.2151718
		c2.133728-4.9380493,7.0076294-8.1393166,12.3981323-8.1393166h21.8239136c4.8513794,0,8.1231079,4.9798241,6.1915283,9.4365463
		l-73.2355347,172.8197327c-2.7402344,6.339798-4.6118774,8.473526-12.3966064,8.138855V239.5458527z"/>
	<path fill="#0066FF" d="M354.3569336,232.8182373V55.9084053c0-3.7139587,3.0126648-6.7270088,6.7268372-6.7270088h23.120636
		c3.7134399,0,6.7268677,3.0130501,6.7268677,6.7270088v13.0459175c0,1.4437485,1.8934021,1.9145203,2.6046753,0.6590576
		c8.704834-15.3579788,26.4267883-20.9969368,43.469635-20.9969368c35.4655457,0,68.4200745,30.1510811,68.4200745,74.0070648
		c0,43.8350143-32.6722717,73.4421921-68.1378174,73.4421921c-12.4497375,0-33.4883118-3.5360107-43.8874207-17.6073761
		c-0.7846375-1.0563812-2.4691467-0.4911346-2.4691467,0.8265381v53.533371c0,3.7141876-3.0134277,6.7268677-6.7268677,6.7268677
		h-23.120636C357.3695984,239.545105,354.3569336,236.5324249,354.3569336,232.8182373z M430.5924377,164.2304688
		c22.3464966,0,39.0958862-15.9123688,39.0958862-41.6069565c0-25.6938324-16.7493896-41.8892136-39.0958862-41.8892136
		c-19.8257141,0-39.6611633,16.1953812-39.6611633,41.8892136
		C390.9312744,148.3181,410.7562256,164.2304688,430.5924377,164.2304688z"/>
	<path fill="#0066FF" d="M663.5836182,192.6442566h-23.2875977c-3.7351074,0-6.7695312-3.0336456-6.7695312-6.7687988v-11.8006439
		c0-1.4127502-1.8515015-1.9038696-2.5836792-0.6902771c-9.0702515,15.0124664-25.1293335,23.0367889-43.8035889,23.0367889
		c-35.706665,0-68.8707275-29.6386108-68.8707275-73.7663651c0-44.1285095,33.1640625-74.4990997,68.8707275-74.4990997
		c17.1679077,0,35.005127,5.67033,43.7616577,21.143383c0.7112427,1.255455,2.6151733,0.7742081,2.6151733-0.669548V55.9499588
		c0-3.7349243,3.0343628-6.7688637,6.7694702-6.7688637h23.2875977c3.7351685,0,6.7687988,3.0339394,6.7687988,6.7688637
		v129.9255066c0,3.7351532-3.0336304,6.7687988-6.7687988,6.7687988H663.5836182z M633.5264893,122.6444778
		c0-25.8615417-19.9612427-42.1722107-39.9224243-42.1722107c-22.4924927,0-39.3572388,16.3001862-39.3572388,42.1722107
		s16.8647461,41.8892136,39.3572388,41.8892136C613.5652466,164.5336914,633.5264893,148.5164948,633.5264893,122.6444778z"/>
	<path fill="#0066FF" d="M252.3961334,0.0329008h-24.3656769c-3.7381439,0-6.7687836,3.0305045-6.7687836,6.7688198V185.867218
		c0,3.7381439,3.0306396,6.7687988,6.7687836,6.7687988h24.3656769c3.7381439,0,6.7688141-3.0306549,6.7688141-6.7687988V6.8017206
		C259.1649475,3.0634053,256.1342773,0.0329008,252.3961334,0.0329008z"/>
	<path fill="#0066FF" d="M318.9437866,49.1903801h-24.3656921c-3.7381592,0-6.7687988,3.0304947-6.7687988,6.7688637v129.9364471
		c0,3.7381439,3.0306396,6.7687683,6.7687988,6.7687683h24.3656921c3.7381287,0,6.7687683-3.0306244,6.7687683-6.7687683V55.9592438
		C325.7125549,52.2208748,322.6819153,49.1903801,318.9437866,49.1903801z"/>
	<path fill="#0066FF" d="M318.9437866,0.0329008h-24.3656921c-3.7381592,0-6.7687988,3.0305045-6.7687988,6.7688198v24.3760986
		c0,3.738369,3.0306396,6.7688599,6.7687988,6.7688599h24.3656921c3.7381287,0,6.7687683-3.0304909,6.7687683-6.7688599V6.8017206
		C325.7125549,3.0634053,322.6819153,0.0329008,318.9437866,0.0329008z"/>
	<path fill="#00B5FF" d="M994.7293701,49.1611824h-8.2504883c-2.4031982,0.2824745-2.8300171,0.3765869-6.0117798,1.0357208
		c-15.0559082,3.1071587-27.0871582,11.14188-35.375061,34.1370354h38.5119019c2.5305176,0,4.8140259-1.50634,5.7947998-3.8392105
		l10.1820068-24.0102882C1001.0556641,53.0111008,998.5026855,49.1611824,994.7293701,49.1611824z"/>
	<path fill="#0066FF" d="M979.9204102,49.2139664c-37.3364258,1.1299019-71.9627075,29.0317307-78.2216187,67.3849487
		l-1.6621094,9.4992065c-0.6812744,3.8496933,2.2909546,7.3864365,6.206543,7.3864365h22.5650635
		c3.0097046,0,5.5926514-2.1344757,6.1691284-5.0850067l3.5487671-18.1718826
		c1.8192139-10.2628632,4.0278931-18.7790527,6.5808105-25.8824997
		c8.2879028-22.9849739,20.3191528-31.0196953,35.375061-34.1373367c3.1743164-0.6590614,3.6085815-0.7637253,6.0117798-1.035717
		c0,0-5.8771362,0.0313683-6.5582886,0.05233L979.9204102,49.2139664z"/>
	<path fill="#00B5FF" d="M856.4412231,84.3227158h8.242981c2.4032593-0.2822571,2.8299561-0.3765945,6.0118408-1.0354233
		c15.0558472-3.1070099,27.0870972-11.1419601,35.375-34.1371155H867.559082c-2.5305176,0-4.8139648,1.5064888-5.7947388,3.8395119
		l-10.1820068,24.0102119C850.1074219,80.4730148,852.6604004,84.3227158,856.4412231,84.3227158z"/>
	<path fill="#0066FF" d="M871.2426147,84.2703018c37.3364868-1.1297531,71.9627686-29.031662,78.2216797-67.3848724
		l1.6621094-9.4993591C951.8076782,3.5361049,948.8354492,0,944.9198608,0h-22.5651245
		c-3.0097046,0-5.5926514,2.1342227-6.1690674,5.0844655l-3.5487671,18.1722794
		c-1.8192749,10.2630844-4.0278931,18.7789803-6.5808105,25.882576
		c-8.2879028,22.9847488-20.3191528,31.019249-35.3675537,34.1367416c-3.1818237,0.6595764-3.6085815,0.7643967-6.0193481,1.036171
		c0,0,5.8771362-0.0314484,6.5584106-0.0524063L871.2426147,84.2703018z"/>
	<path fill="#0066FF" d="M92.9878922,55.5226135c1.203125-3.0025673,5.4608536-2.9920883,6.6639709,0.0208893
		c9.3951492,23.5392151,52.1423416,130.0616913,52.1423416,130.0616913c1.4015198,3.8916168,5.000412,7.02034,9.7709656,7.02034
		h26.1655273c3.4102173,0,5.8269348-3.4738617,4.5399628-6.6647186
		C180.4595337,156.6890564,130.8597107,39.02425,116.9665146,5.9543157
		c-1.5377884-3.6093481-5.0842667-5.9214149-9.0073318-5.9214149H84.6393967c-3.9230576,0-7.4695435,2.3225336-8.9863586,5.9318738
		C62.5335236,37.1202126,12.1492262,156.761673,0.3482485,186.0027466
		c-1.2763456,3.1803589,1.1194199,6.6227875,4.5195203,6.6227875h25.171236c4.6659775,0,9.028595-2.4586487,10.7861862-7.02034
		L92.9878922,55.5226135z"/>
	
		<linearGradient id="SVGID_1_" gradientUnits="userSpaceOnUse" x1="-174.048996" y1="155.3010101" x2="-31.1926403" y2="237.7827301" gradientTransform="matrix(1 0 0 -1 202.3399963 319.8234253)">
		<stop  offset="0" style="stop-color:#0055EF"/>
		<stop  offset="0.1" style="stop-color:#0057F1"/>
		<stop  offset="0.18" style="stop-color:#0060FA"/>
		<stop  offset="0.2" style="stop-color:#0066FF"/>
		<stop  offset="0.36" style="stop-color:#006BFF"/>
		<stop  offset="0.56" style="stop-color:#007CFF"/>
		<stop  offset="0.8" style="stop-color:#0097FF"/>
		<stop  offset="1" style="stop-color:#00B5FF"/>
	</linearGradient>
	<path fill="url(#SVGID_1_)" d="M213.5817566,78.3078461c-2.8352509-6.5911255-7.1768341-15.5150604-11.0684509-20.6518784
		c-2.1659088-2.8560524-5.272934-3.6092949-9.2379303-2.7933121
		c-50.2796173,10.3781586-87.7119598,33.7709351-102.7670975,48.9720612
		c-23.2249985,23.4448242-23.0471115,46.000946-8.4944839,58.9732666
		c-4.9487534-9.6878662,2.2385406-23.204483,23.3609543-37.5057068
		c39.3160172-26.6147079,103.823494-39.0120468,103.9597549-39.0330124
		c3.6198425-0.7322006,5.7124023-4.5826492,4.2472534-7.9719009V78.3078461z"/>
	
		<linearGradient id="SVGID_00000008850142147742600330000010549133722014092672_" gradientUnits="userSpaceOnUse" x1="-131.7545471" y1="174.4689178" x2="-48.2166786" y2="144.0666504" gradientTransform="matrix(1 0 0 -1 202.3399963 319.8234253)">
		<stop  offset="0" style="stop-color:#000ABD"/>
		<stop  offset="0.11" style="stop-color:#0013C0"/>
		<stop  offset="0.31" style="stop-color:#002DCA"/>
		<stop  offset="0.55" style="stop-color:#0058DB"/>
		<stop  offset="0.84" style="stop-color:#0092F1"/>
		<stop  offset="1" style="stop-color:#00B5FF"/>
	</linearGradient>
	<path fill="url(#SVGID_00000008850142147742600330000010549133722014092672_)" d="M82.9077148,147.6180725
		c-2.8764191,5.6495209-3.1279755,10.8071594-0.8991623,15.180191c6.0470581,5.5761261,22.3989029,13.8827057,65.7315598,12.7319946
		l-8.358963-20.8296814c-19.3959732,2.0820618-46.1469421,2.7933044-56.4734344-7.0929718V147.6180725z"/>
</g>
</svg>
