<svg preserveAspectRatio="none" width="35.1911" height="33.8376" overflow="visible" style="display: block;" viewBox="0 0 35.1911 33.8376" fill="none" xmlns="http://www.w3.org/2000/svg">
<path id="Vector" d="M17.7302 0C17.8943 0.219668 17.9816 0.650958 18.0735 0.91832C18.227 1.36463 18.3849 1.8382 18.6121 2.25264C19.0461 3.04446 19.5209 3.81961 19.9749 4.60031L22.7497 9.37389C23.314 10.3485 24.044 11.4269 24.472 12.4586C24.8889 13.4637 25.1181 14.5235 25.3375 15.5864C27.1437 16.0842 28.8548 16.6459 30.4881 17.5957C32.4591 18.7421 34.4103 20.4764 35.0171 22.781C35.4078 24.2665 35.1198 25.8054 34.3607 27.1204C32.5464 30.2616 28.5359 32.0247 25.2092 32.9026C18.8706 34.5754 10.3311 34.0964 4.6312 30.7109C2.69128 29.5586 0.758127 27.8342 0.172855 25.5478C-0.211238 24.0473 0.0602344 22.5215 0.833645 21.1994C2.61098 18.161 6.32476 16.5049 9.55798 15.6618L9.85219 15.5885C9.84925 16.614 10.0042 17.6305 10.3631 18.5918C10.7773 19.701 11.4798 20.733 12.0734 21.7535L15.1346 27.016C15.6283 27.8649 16.303 28.8961 16.7028 29.7684C17.0067 30.4314 17.2271 31.1401 17.4501 31.8345C17.7551 31.2303 18.0386 30.6251 18.2314 29.9734C18.8272 27.9593 18.6422 25.5994 17.777 23.6902C17.4413 22.9494 16.9436 22.2355 16.5357 21.5298L14.1724 17.4958C13.5647 16.4595 12.915 15.4535 12.5478 14.2978C12.0199 12.636 12.0327 10.832 12.702 9.21276C12.9285 8.66488 13.2356 8.15082 13.5042 7.62317C13.5355 8.22256 13.6498 8.77711 13.8927 9.32659C14.164 9.94026 14.5529 10.5152 14.8953 11.0912L16.6696 14.0751C17.7737 15.9377 18.7811 17.8712 19.8298 19.767C20.0922 20.2433 20.3569 20.7182 20.624 21.1918C21.1797 22.1646 21.6422 22.9654 21.6725 24.1271C21.9628 23.5617 22.2887 23.0158 22.5183 22.4206C23.2191 20.5777 23.1742 18.5295 22.3934 16.7199C22.0583 15.9542 21.595 15.2189 21.1922 14.4861L18.5442 9.66196C17.9238 8.53771 17.263 7.45337 16.9353 6.19586C16.4122 4.18844 16.7026 2.26837 17.731 0.484452L17.7302 0Z" fill="var(--fill-0, #FEFEFE)"/>
</svg>
