<svg preserveAspectRatio="none" width="33.9423" height="29.3941" overflow="visible" style="display: block;" viewBox="0 0 33.9423 29.3941" fill="none" xmlns="http://www.w3.org/2000/svg">
<g id="Natwest_Secondary_Horizontal_RGB_NEG">
<g id="Group">
<path id="Path" d="M24.2488 20.9929H14.5524L19.3977 29.3941H29.0951H29.097L24.2488 20.9929Z" fill="var(--fill-0, #E90000)"/>
<path id="Path_2" d="M29.0941 12.6004L33.9423 20.9968L29.097 29.3941L24.2488 20.9929L29.0941 12.6004Z" fill="var(--fill-0, #C20000)"/>
<path id="Path_3" d="M21.8194 0.000974507L21.8203 0H12.1239L7.27864 8.39343H16.9741L21.8194 0.000974507Z" fill="var(--fill-0, #E90000)"/>
<path id="Path_4" d="M16.9741 8.39343L21.8223 16.7927L26.6676 8.39732L21.8194 0L16.9741 8.39343Z" fill="var(--fill-0, #C20000)"/>
<path id="Path_5" d="M9.69933 20.9919L14.5446 12.5994H4.84821L0.00292354 20.9919L0 20.9958L9.69933 20.9919Z" fill="var(--fill-0, #E90000)"/>
<path id="Path_6" d="M14.5466 29.3941H14.5436H4.84821L0 20.9958L0.00292354 20.9919H9.69933L14.5466 29.3941Z" fill="var(--fill-0, #C20000)"/>
</g>
<path id="Path_7" d="M24.241 12.5995L21.8213 16.7918H16.9731L14.5524 20.9929H24.2488L29.0941 12.5995H24.241Z" fill="url(#paint0_linear_0_70)"/>
<path id="Path_8" d="M9.71201 12.5994H14.5436L16.9731 16.7918H21.8213L16.9741 8.39248H7.27865L9.71201 12.5994Z" fill="url(#paint1_linear_0_70)"/>
<path id="Path_9" d="M16.9692 25.1833L14.5524 20.9929L16.9731 16.7918L14.5436 12.5995L9.69934 20.9919L14.5466 29.3941L16.9692 25.1833Z" fill="url(#paint2_linear_0_70)"/>
</g>
<defs>
<linearGradient id="paint0_linear_0_70" x1="377.656" y1="362.257" x2="983.914" y2="712.319" gradientUnits="userSpaceOnUse">
<stop stop-color="#C20000" stop-opacity="0.1"/>
<stop offset="0.24" stop-color="#C20000" stop-opacity="0.2"/>
<stop offset="0.72" stop-color="#C20000" stop-opacity="0.44"/>
<stop offset="1" stop-color="#C20000" stop-opacity="0.6"/>
</linearGradient>
<linearGradient id="paint1_linear_0_70" x1="1041.28" y1="306.475" x2="732.457" y2="674.51" gradientUnits="userSpaceOnUse">
<stop stop-color="#C20000" stop-opacity="0.1"/>
<stop offset="0.2" stop-color="#C20000" stop-opacity="0.2"/>
<stop offset="0.61" stop-color="#C20000" stop-opacity="0.44"/>
<stop offset="1" stop-color="#C20000" stop-opacity="0.7"/>
</linearGradient>
<linearGradient id="paint2_linear_0_70" x1="318.555" y1="505.296" x2="751.367" y2="868.46" gradientUnits="userSpaceOnUse">
<stop stop-color="#C20000" stop-opacity="0.1"/>
<stop offset="0.2" stop-color="#C20000" stop-opacity="0.2"/>
<stop offset="0.61" stop-color="#C20000" stop-opacity="0.44"/>
<stop offset="1" stop-color="#C20000" stop-opacity="0.7"/>
</linearGradient>
</defs>
</svg>
