<svg preserveAspectRatio="none" width="35.1309" height="30.4395" overflow="visible" style="display: block;" viewBox="0 0 35.1309 30.4395" fill="none" xmlns="http://www.w3.org/2000/svg">
<g id="Group" transform="translate(0, 30.4395) scale(1, -1)">
<path id="Subtract" d="M6.41895 0C6.629 0 6.67577 0.187098 6.67578 0.327148C6.6291 0.91072 6.16245 1.2609 5.76562 1.54102C5.11215 1.9378 4.99523 2.21802 4.78516 2.98828C4.64511 4.17875 4.90175 5.41597 4.99512 6.60645C5.0418 7.16667 5.18208 7.51704 5.53223 7.86719C5.67231 8.03059 6.02304 8.31064 6.16309 8.33398C6.97987 8.42741 7.7733 8.73066 8.42676 9.2207C8.45002 8.33378 7.56348 8.17019 7.56348 7.2832C7.56356 6.55975 8.12382 6.30327 8.54395 5.74316C9.3376 4.69274 9.73425 4.34169 10.668 2.87109C10.9943 2.35782 10.6679 2.10073 11.1113 1.68066C11.3679 1.49416 11.5079 1.56403 11.7178 1.30762C11.9745 0.957474 11.8348 0.606884 12.0449 0.233398C12.0917 0.140027 12.1858 0 12.4189 0H13.8887C14.0988 0 14.1924 0.117157 14.1924 0.350586C14.1924 0.817433 13.749 1.3775 13.0254 1.75098C12.3018 2.12446 11.6018 3.292 11.1816 4.01562C10.7148 4.85588 9.82802 5.5794 9.54785 6.58301C9.33777 7.40001 9.54786 7.844 10.2715 8.14746C11.6016 8.7545 12.5115 10.3645 12.9316 11.5781L15.7803 11.2754C17.1807 11.0887 18.9076 11.2054 19.958 11.5088C20.6815 11.7188 21.1019 12.0219 21.6387 12.1387H21.5918C22.2687 12.2787 22.363 11.9051 23.0166 12.0918C24.6971 12.6054 26.0511 13.7496 27.0781 14.123C27.2647 14.193 27.4513 14.2392 27.6611 14.2393C28.0346 14.2393 28.0817 14.053 28.4551 13.6562C29.1787 12.8626 29.5755 11.5786 29.8789 10.2715C29.9489 10.0148 30.3688 10.0611 30.3691 9.80469C30.3691 9.38452 30.042 9.1975 30.042 8.77734C30.042 8.24054 31.2792 7.72672 31.7695 7.72656C32.1197 7.72656 32.1436 8.07721 32.1436 8.33398C32.1435 9.19755 31.7932 9.64147 31.373 10.3184C30.5095 11.7888 29.7861 13.5392 29.2959 14.7529C29.0392 15.3597 28.712 15.9197 28.082 15.9199L26.0039 15.8271L25.3506 15.8037L25.4443 15.9434C25.771 15.9901 26.0746 16.1075 26.5879 16.3408C27.3113 16.6443 27.7551 17.1338 28.2686 17.1338C28.4785 17.1338 28.5487 17.1339 28.7354 17.1572C29.0388 17.1805 29.6453 16.8771 30.2754 16.2705C30.999 15.5702 31.5828 14.8929 31.7695 14.4961C31.9328 14.1696 31.9565 14.053 32.1895 13.9131C32.3995 13.7964 32.7036 13.9129 32.8438 13.6797C33.0305 13.3996 32.7265 13.0488 32.9365 12.792C33.1699 12.4419 33.7071 12.3018 34.1973 12.3018C34.8504 12.3018 35.1304 12.5352 35.1309 12.7451C35.1309 13.3228 34.7373 13.6645 34.2646 14.0059L33.707 14.4961C32.4465 15.4532 31.3261 16.854 30.1123 18.1846C29.6222 18.7213 29.2255 18.9784 28.5488 18.9785C28.1987 18.9785 27.6615 18.8613 27.2646 18.8613C26.611 18.8613 26.0738 18.8851 25.4902 18.7217C25.0472 19.0484 25.0939 19.398 25.3271 19.5381C25.864 19.8415 25.3506 20.029 25.3506 20.4258C25.3509 20.7755 25.7237 20.8919 25.957 20.7754C26.2371 21.4054 25.7009 22.1289 25.584 22.6191C25.9574 22.6892 26.331 22.8528 26.5645 23.3428C26.191 23.5295 25.3507 24.02 25.3271 24.8135C25.9807 24.8835 26.5177 25.444 26.3545 26.0742C26.2145 25.9809 26.051 25.9577 25.8877 26.0742C25.6777 26.2142 25.7006 26.3077 25.3975 26.541C25.094 26.7511 24.4398 26.7979 24.2764 27.2646C24.6499 27.8249 24.6265 28.4787 24.2764 28.7588C24.2063 28.6653 24.0662 28.4551 23.8096 28.4551C23.3197 28.4552 23.2263 28.7821 22.7598 29.1787C22.6197 29.2721 22.3623 29.4824 21.6387 29.4824C21.172 29.4825 20.7983 29.7626 20.4482 29.7393C20.6116 29.5058 20.5183 29.132 20.2148 29.1787C20.0981 29.2023 19.9116 29.5293 19.6084 29.7393C19.375 29.8793 19.1642 29.8562 18.9541 30.043C18.7679 30.1831 18.8143 30.4394 18.6045 30.4395C18.4412 30.4395 18.4638 30.2064 18.4639 30.043C18.4639 29.7629 18.6044 29.6692 18.5811 29.2725C18.2776 29.4592 18.1374 29.7861 17.834 29.7861C17.8106 29.7861 17.7635 29.7624 17.7402 29.7158C17.7359 29.7111 17.6735 29.6368 17.7637 29.3887C17.8572 29.132 18.2305 28.9683 18.2305 28.6416C18.23 28.0583 17.4375 27.6614 17.4375 27.0547C17.4376 26.9614 17.5303 26.8911 17.5303 26.7744C17.5535 26.4944 17.2502 26.2141 17.0635 25.8174C16.7602 25.2107 16.7839 25.0004 16.4805 24.3936C16.3638 24.0901 16.1064 23.9968 16.1064 23.6934C16.1065 23.0865 16.3638 22.3633 16.9707 22.3633C17.274 22.3631 17.5773 22.1062 17.834 22.2461C18.6043 22.6663 18.0912 22.8295 18.418 23.1797C18.9547 23.6931 19.4213 24.1834 19.958 24.1836C20.115 24.1836 20.2059 23.9682 20.2129 23.6201C20.1993 22.4545 19.2972 20.8154 18.3242 19.9814C17.881 19.6083 17.694 19.5385 17.2275 19.2354C15.9905 18.3484 14.9399 18.1846 14.3096 18.1846C12.7456 18.1846 12.1151 18.5576 10.6445 18.5576C9.66419 18.5576 8.66063 18.231 7.82031 17.6475C5.5795 17.8809 5.50907 20.7517 3.01172 20.752C1.30769 20.752 0 19.3048 0 17.4141C3.442e-05 15.6401 0.840232 14.5893 2.35742 13.5156C2.61419 13.3289 2.87109 13.1887 2.87109 12.7686C2.87063 11.8819 1.28418 11.8584 1.28418 10.6914C1.28419 10.1078 1.70452 9.6875 2.28809 9.6875C2.54468 9.68758 2.75431 9.78126 2.84766 9.99121C2.66122 10.0845 2.5451 10.2011 2.54492 10.3643C2.54492 11.1579 5.13574 10.7382 5.13574 12.8857C5.13567 14.7297 2.82422 15.0566 2.82422 16.4805C2.82422 16.6905 2.8951 16.877 3.03516 16.877C3.17482 16.8762 3.19869 16.5037 3.47852 16.457C3.5952 16.8771 4.03826 17.4841 4.52832 17.4844C4.64503 17.4844 4.73888 17.4371 4.64551 17.3438C4.43554 17.1104 4.38867 16.9005 4.38867 16.6904C4.38871 16.5737 4.45892 16.3639 4.66895 16.2705C4.80904 16.5738 5.11273 16.7608 5.43945 16.7842C5.85915 16.7841 5.85943 16.6204 6.48926 16.667C6.62873 16.667 6.62988 16.5746 6.62988 16.5508C6.20971 15.9906 5.90587 15.3597 5.8125 14.7061C5.60257 13.2594 5.9295 12.5359 5.92969 12.209C5.95303 11.9289 5.99905 11.6252 5.76562 11.1816C5.53226 10.7616 5.64885 11.0181 5.27539 10.4346C4.66844 9.40765 3.45468 9.36044 3.59473 8.19336C3.89808 6.18616 3.59456 4.55243 3.54785 3.52539C3.52451 3.05864 3.38483 2.755 3.38477 2.54492C3.38477 1.798 4.20176 1.82114 4.36523 1.09766C4.43522 0.747716 4.34187 0.514138 4.50488 0.210938C4.52822 0.117583 4.66867 4.25573e-05 4.83203 0H6.41895ZM17.6494 23.1377C17.346 22.9043 17.2524 22.9746 17.3691 23.208C17.5092 23.5348 17.4623 23.9779 17.0889 23.8379C16.7389 23.7213 16.4121 23.7451 16.5518 23.9316C16.6685 24.1417 16.8085 24.2118 17.0186 24.8418L17.8125 26.4756C18.0925 26.989 17.696 26.9429 17.7891 27.2461C17.8824 27.4795 18.1629 27.7598 18.3496 28.0166C18.5597 28.2267 18.7468 28.3201 18.9102 28.2734C19.0966 28.2266 19.0729 28.0627 19.0029 27.6895C18.933 27.3163 18.9799 27.1762 19.2598 27.0596C19.5398 26.9196 19.6569 26.5234 19.4238 26.6396C18.8636 26.8497 18.5826 26.4528 18.2324 25.8926C17.9057 25.4025 17.6959 24.8422 17.6025 24.2588C17.4858 23.5585 17.9529 23.3711 17.6494 23.1377ZM24.7227 15.9951C24.5126 15.4582 24.6753 17.5828 22.1543 18.7266C21.3609 19.0999 21.0341 19.2635 21.7109 19.917C23.7182 21.8311 24.3718 25.7519 22.2012 27.1992C21.7819 27.4788 21.4321 27.5959 21.4307 27.666C21.4307 27.736 21.7341 27.7365 22.1074 27.5732C25.3521 26.1727 24.6752 22.1573 23.5781 19.5195C23.2983 18.8665 23.5784 19.0527 24.2549 18.2598C24.8384 17.6529 25.0027 16.7654 24.7227 15.9951ZM0.819336 17.9092C0.702622 17.9092 0.702243 18.0497 0.725586 18.2598C0.865877 19.4034 1.96348 20.3604 3.03711 20.3604C4.11064 20.3602 4.85752 19.7295 5.11426 19.0293C5.18407 18.7029 4.95079 18.8194 4.85742 18.8428C4.624 18.9128 4.39056 18.9365 4.13379 18.9365C3.13019 18.9365 2.94334 18.3996 2.70996 18.3994C2.61688 18.3994 2.59292 18.4689 2.59277 18.5156C2.59277 18.7724 2.91992 18.9364 2.91992 19.1465C2.91988 19.2631 2.87265 19.3799 2.56934 19.3799C1.56623 19.3794 1.07613 17.9101 0.819336 17.9092ZM6.58496 13.3574C6.51493 13.3574 6.46768 13.3808 6.44434 13.6143C6.25776 15.2015 7.56526 17.909 11.0195 17.9092C12.1633 17.9092 13.261 17.5361 14.5215 17.5361C15.6184 17.6295 16.6688 17.979 17.5791 18.5625L18.3965 19.1465C18.5128 19.1696 18.4664 19.0763 18.3965 18.9365C18.1864 18.6097 17.9991 18.423 17.7891 18.2129C17.4856 17.8627 17.1353 17.372 17.0186 16.8818C16.7851 15.8317 16.5519 15.5286 15.1748 15.3652C14.2651 15.2486 13.9378 15.5044 13.9141 15.6445C13.8674 15.9946 14.4742 16.0184 14.4746 16.3682C14.4746 16.5316 13.9141 16.999 12.4902 16.999C10.5296 16.999 9.15205 16.2988 7.8916 15.1084C7.02812 14.2916 6.84164 13.3579 6.58496 13.3574ZM34.3164 12.6572C33.9896 12.6572 34.2227 13.2411 33.9893 13.6846C34.3161 13.5679 34.7363 13.1005 34.7363 12.8438C34.7363 12.7271 34.4798 12.6573 34.3164 12.6572ZM31.6084 8.19824C31.445 8.19824 31.0246 8.3385 31.0244 8.47852C31.0244 8.68859 31.2581 8.99216 31.3281 9.45898C31.5849 9.2489 31.748 8.78197 31.748 8.47852C31.748 8.36184 31.725 8.19832 31.6084 8.19824ZM13.2842 0.308594C13.0274 0.308597 13.0036 0.985387 12.9336 1.24219C13.2137 1.1255 13.4714 0.962627 13.6348 0.682617C13.7047 0.565977 13.7976 0.308919 13.6113 0.308594H13.2842ZM5.62793 0.308594C5.37121 0.308594 5.32391 0.961866 5.25391 1.21875C5.51052 1.10211 5.81407 0.962397 5.97754 0.682617C6.04757 0.565903 6.18772 0.308594 6.00098 0.308594H5.62793Z" fill="var(--fill-0, #020202)"/>
</g>
</svg>
