<svg width="92.7249" height="21.1013" overflow="visible" style="display: block;" viewBox="0 0 92.7249 21.1013" fill="none" xmlns="http://www.w3.org/2000/svg">
<path id="Vector" d="M51.6439 0.315468H57.3574L54.4831 20.8209H48.7696L51.6439 0.315468ZM44.4407 0.315468L40.585 12.128L38.9025 0.315468H34.9066L29.8591 12.0929L29.2281 0.315468H23.6899L25.6178 20.8209H30.2096L35.888 7.85165L37.886 20.8209H42.4077L49.8738 0.315468H44.4407ZM92.4094 12.2332H78.8443C78.9144 14.8971 80.5092 16.6497 82.8577 16.6497C84.6279 16.6497 86.0299 15.7033 87.1166 13.8981L91.6961 15.9802C90.1223 19.0805 86.8063 21.1013 82.7175 21.1013C77.1443 21.1013 73.4463 17.3507 73.4463 11.3218C73.4463 4.69701 77.7927 0 83.9268 0C89.3248 0 92.7249 3.64545 92.7249 9.32384C92.7249 10.2702 92.6197 11.2167 92.4094 12.2332ZM87.3269 8.30733C87.3269 5.92381 85.9949 4.41656 83.8567 4.41656C81.7185 4.41656 79.8257 5.99391 79.335 8.30733H87.3269ZM5.83266 6.49514L0 13.311H10.414L11.5847 10.0967H7.12257L9.84962 6.94381L9.85838 6.85968L8.08475 3.8084H16.0608L9.87766 20.8209H14.1084L21.5745 0.315468H2.28539L5.8309 6.49514H5.83266ZM66.6462 4.41656C68.6617 4.41656 70.4283 5.49967 71.9706 7.35742L72.7803 1.57734C71.3431 0.604652 69.3977 0 66.8214 0C61.7038 0 58.8296 2.99697 58.8296 6.80009C58.8296 9.43774 60.3018 11.0502 62.7203 12.0929L63.8771 12.6187C66.0328 13.5388 66.6111 13.9945 66.6111 14.9672C66.6111 15.9399 65.6384 16.6147 64.1575 16.6147C61.7126 16.6234 59.7322 15.3703 58.2424 13.2321L57.417 19.1226C59.1135 20.416 61.2885 21.1013 64.1575 21.1013C69.0209 21.1013 72.0091 18.2971 72.0091 14.4064C72.0091 11.76 70.8349 10.0599 67.873 8.72795L66.6111 8.13207C64.8585 7.35217 64.2626 6.92277 64.2626 6.064C64.2626 5.13513 65.0776 4.41656 66.6462 4.41656Z" fill="var(--fill-0, #163300)"/>
</svg>
